<svg width="14" height="14" viewBox="0 0 14 14" fill="none" xmlns="http://www.w3.org/2000/svg">
<path fill-rule="evenodd" clip-rule="evenodd" d="M7.34986 0.350098C7.48247 0.350098 7.60965 0.402776 7.70342 0.496544C7.79718 0.590312 7.84986 0.717489 7.84986 0.850098V3.0221C7.84986 3.15471 7.79718 3.28188 7.70342 3.37565C7.60965 3.46942 7.48247 3.5221 7.34986 3.5221C7.21725 3.5221 7.09008 3.46942 6.99631 3.37565C6.90254 3.28188 6.84986 3.15471 6.84986 3.0221V1.3721C5.58908 1.48421 4.40245 2.01644 3.48025 2.88344C2.55804 3.75045 1.95368 4.902 1.76406 6.15348C1.57444 7.40496 1.81055 8.68387 2.43453 9.78514C3.0585 10.8864 4.0342 11.7463 5.20519 12.2268C6.37618 12.7074 7.67462 12.7808 8.89233 12.4354C10.11 12.0899 11.1765 11.3456 11.9207 10.3217C12.6648 9.29781 13.0436 8.05369 12.9964 6.78881C12.9491 5.52393 12.4784 4.31156 11.6599 3.3461C11.6152 3.29637 11.581 3.2382 11.5593 3.17504C11.5375 3.11187 11.5286 3.04498 11.5332 2.97832C11.5377 2.91166 11.5555 2.84659 11.5856 2.78694C11.6157 2.72729 11.6575 2.67428 11.7084 2.63104C11.7593 2.5878 11.8184 2.5552 11.8821 2.53517C11.9459 2.51514 12.013 2.5081 12.0795 2.51444C12.146 2.52078 12.2106 2.54039 12.2694 2.57211C12.3282 2.60383 12.38 2.64701 12.4219 2.6991C13.4018 3.85464 13.9577 5.31016 13.9977 6.82473C14.0376 8.3393 13.5592 9.8221 12.6416 11.0277C11.7239 12.2333 10.4221 13.0894 8.95166 13.4543C7.48116 13.8192 5.93014 13.6711 4.55533 13.0344C3.18052 12.3976 2.06435 11.3106 1.39157 9.95303C0.718797 8.5955 0.529752 7.04893 0.855732 5.56932C1.18171 4.08971 2.00317 2.76577 3.18414 1.81665C4.3651 0.867523 5.83477 0.350127 7.34986 0.350098ZM8.10986 7.5801L10.6259 4.0731C10.6594 4.02496 10.6749 3.96657 10.6697 3.90815C10.6645 3.84973 10.6389 3.795 10.5974 3.75353C10.556 3.71206 10.5012 3.68649 10.4428 3.68129C10.3844 3.67609 10.326 3.6916 10.2779 3.7251L6.76886 6.2401C6.65596 6.32138 6.56207 6.42624 6.4937 6.5474C6.42533 6.66856 6.38411 6.80313 6.3729 6.9418C6.36168 7.08046 6.38074 7.21991 6.42875 7.35048C6.47676 7.48106 6.55258 7.59963 6.65095 7.69801C6.74933 7.79638 6.8679 7.8722 6.99848 7.92021C7.12905 7.96822 7.2685 7.98728 7.40716 7.97606C7.54583 7.96485 7.6804 7.92363 7.80156 7.85526C7.92272 7.78689 8.02758 7.693 8.10886 7.5801H8.10986Z" fill="white"/>
</svg>
